<?xml version="1.0" encoding="UTF-8"?><svg id="Ebene_2" xmlns="http://www.w3.org/2000/svg" viewBox="0 0 121.2681 164.8432"><g id="Components"><g id="ce16b5ce-e0bd-4a3e-a8d0-a3706daf1b78_x40_16"><path d="M49.542,113.9912c1.2399,3.0238,2.9598,5.8236,5.0876,8.2874-1.7199.008-3.4237-.376-4.9756-1.1279-5.2956-3.0718-9.1193-8.1754-10.5992-14.1349-2.6478-9.6153-1.5919-19.8785,2.9438-28.7498,11.3831,7.2954,23.8542,22.0943,24.3101,32.5415.192,2.4878-.584,4.9516-2.1678,6.8715-3.7037-1.5119-7.0634-3.7757-9.8632-6.6555-3.3277-3.7757-5.7436-8.2714-7.0555-13.143-.456,5.4796.328,10.9832,2.3118,16.1028M31.7914,82.1056c-3.1997-4.4397-6.1115-9.0873-8.7033-13.9189.464,5.9516,1.3439,11.8551,2.6318,17.6786-1.1199-.424-2.2318-.8319-3.3517-1.2239-.032-.056-.048-.112-.072-.16-3.1598-6.5035-7.3674-15.1748-2.2558-29.2457,6.0315,5.0316,11.3271,10.8952,15.7428,17.4067-1.6319,3.0158-2.9678,6.1915-3.9917,9.4633M22.9921,114.7191c-7.4394-4.4877-11.1911-13.231-10.7752-24.9101l1.6959.5679c5.3196,1.6239,10.5272,3.6237,15.5668,5.9755-.04,3.8397.424,7.6634,1.3759,11.3751-4.4317-1.8079-8.3274-4.7116-11.3271-8.4473,2.1198,7.2794,6.4875,13.6949,12.479,18.3106-3.1838-.24-6.2715-1.2239-9.0153-2.8718M41.1026,22.4383c3.0958,2.9038,5.8795,6.1275,8.3194,9.6073-6.8155,7.2634-12.1031,15.8388-15.5428,25.198-1.4239-1.5119-2.8798-2.9518-4.2957-4.3037.296-11.1831,4.3517-21.9343,11.5191-30.5017M63.0609,61.4592c-3.9197,4.1997-7.1914,8.9593-9.7033,14.1189-2.8318-7.3194-2.3118-16.7507-.9439-24.1661-3.4317,6.0315-5.7436,12.639-6.8235,19.5025-.7359-.464-1.4639-.8879-2.1678-1.2799-.9279-1.6479-1.9598-3.2398-3.0878-4.7596-.032-4.5916,3.6157-13.7829,13.351-25.366,4.0797,6.8635,7.2314,14.2469,9.3753,21.9503M68.6685,12.711c15.3188,10.9912,24.2941,27.8858,19.9265,38.445-1.9679,1.8399-3.8077,3.7517-5.4236,5.5516-1.0319-1.8399-1.9279-3.2797-2.5438-4.1757l-1.0239-1.4799c.256-8.8953-1.7439-17.7186-5.7996-25.638,1.3359,9.6872-.248,19.5585-4.5356,28.3418-2.6798-7.2874-6.0555-14.2949-10.0792-20.9344,3.9997-6.2715,7.1914-13.031,9.4713-20.1184M99.8021,52.3959c3.2318,9.0393,3.5757,18.8705.9839,28.1258-2.7198.568-5.3916,1.3199-8.0074,2.2478,1.7839-6.0155,3.5277-12.0071,4.8316-18.1826-2.2078,3.4877-4.5757,6.8075-7.0075,10.0872-.9279-3.4317-2.1038-6.7915-3.5277-10.0472,3.7117-4.5916,7.9914-8.7033,12.727-12.231M105.3857,87.9132c-1.0319,12.679-5.2236,23.2702-11.7911,29.5497-2.6798,2.9118-6.3835,4.6636-10.3272,4.8956-.472-.016-.9359-.064-1.4079-.136,7.5194-6.8075,13.031-15.5588,15.9508-25.294-5.6476,8.0794-13.191,16.0788-22.7582,19.1585-.496-2.9198-.024-5.9195,1.3359-8.5513,7.0875-14.8628,20.1904-18.0546,28.9978-19.6225M67.5886,92.3288c-2.4238-3.6237-5.1756-7.0075-8.2154-10.1192,3.4317-8.6393,9.2233-16.1348,16.7107-21.6143,4.1037,7.2714,8.6073,18.8705,7.7914,26.494-3.4157,2.1678-6.4715,4.8556-9.0713,7.9594-.6079-7.6154-.536-15.2548-.488-22.9342-2.4158,6.7115-4.7996,13.391-6.7275,20.2064M120.1125,141.773c-1.5519-1.6159-4.1197-1.6719-5.7276-.112l-.008.008c-2.8798,2.8238-5.3916,5.9995-7.4714,9.4633-4.1277-8.4233-10.0632-15.8228-17.3827-21.6623,3.6237-1.3119,6.9115-3.3917,9.6553-6.0955,5.2796-5.0396,14.1909-16.9827,14.5669-40.2929l.072-5.1036-4.2637.9119c2.3998-11.8791.6319-26.366-4.7916-34.4773l-1.9838-2.9678-3.1838,1.5919c-.576.288-1.1599.608-1.7359.9439-.6239-15.2228-13.9109-31.9255-29.4937-41.1968l-4.6716-2.7838-1.3359,5.2796c-1.7439,6.9195-4.4237,13.5749-7.9514,19.7745-3.2877-4.1277-6.9115-7.9834-10.8392-11.5031l-2.9758-2.7758-2.7518,2.9918c-8.4553,8.9593-14.0149,20.2784-15.9188,32.4695-.4-.312-.7679-.5919-1.1119-.8399l-3.9437-2.9118-2.1358,4.4397c-7.2714,15.2948-5.6316,26.358-2.7678,34.1974-.6799-.232-1.3359-.464-1.9438-.6959l-4.7916-1.7839-.6479,5.0876c-2.9998,23.7582,7.6314,33.9894,14.2309,37.9731,6.5435,4.0157,14.4469,5.1196,21.8223,3.0558.8559.7679,1.7519,1.4719,2.6958,2.1118,1.2319,8.7113-1.5039,15.5828-7.0955,17.6306-5.4956,2.0078-13.9589-1.0159-20.5024-12.279-.7279-1.2799-2.0958-2.0558-3.5597-2.0238-1.4639.016-2.7998.8239-3.5037,2.1118-2.7518,5.0476-6.3435,12.1751-8.2314,15.9668-1.0079,2.0158-.2,4.4637,1.8079,5.4716.56.28,1.1839.432,1.8159.432,1.5359,0,2.9358-.8719,3.6237-2.2478,1.1999-2.3998,3.0718-6.1355,4.9756-9.8072,8.8713,11.1111,19.3825,12.575,26.35,10.0392,8.2474-3.0238,12.927-11.3351,12.727-21.9263,4.7836.6879,9.6553-.392,13.7029-3.0478.344-.216.6799-.448.9999-.6719,9.8232,2.8718,27.5819,11.3031,36.3892,35.6452.576,1.5839,2.0638,2.6558,3.7437,2.6798h.072c1.6559,0,3.1438-1.0079,3.7597-2.5518,2.1438-5.5436,5.4236-10.5752,9.6233-14.7589,1.6159-1.5599,1.6639-4.1437.104-5.7596" style="fill:#e0caa3;"/></g></g></svg>
