<svg id="ebc15018-e93a-46c8-9db0-53351c419de7_1" xmlns="http://www.w3.org/2000/svg" width="445.915" height="110.648" viewBox="0 0 445.915 110.648">
  <path id="Pfad_34319" data-name="Pfad 34319" d="M.073,23.748C.05,20.286,0,12.393.027,12.116c0-.922.138-1.246.946-1.246H8.912a.612.612,0,0,1,.692.67v.415c0,.554-.208.623-.738.623H1.85v5.7c1.085,0,4.846-.023,6.392-.023.392,0,.716.046.716.531v.53c0,.37-.162.577-.508.554-.715-.023-4.869,0-6.577.023,0,2.377.023,5.192.046,5.469.046.6.092,1.2-.577,1.2H.719c-.646,0-.716-.3-.669-1.154,0-.23.023-.922.023-1.661Z" transform="translate(0.001 0.457)" fill="#fff"/>
  <path id="Pfad_34320" data-name="Pfad 34320" d="M19.542,12.025c0-.554.092-1.154.923-1.154h4.684c3.854,0,5.862,2.169,5.908,5.077a5.032,5.032,0,0,1-3.9,4.846l2.908,3.854c.37.508.669.531,1.431.531.3,1.107-.254,1.615-1.131,1.615a2.079,2.079,0,0,1-1.892-1.178l-3.185-4.546H21.365c0,.6-.046,3.67,0,4.569.046.739-.138.923-.6.923h-.6c-.646,0-.646-.53-.646-1.016.023-1.2.046-13.154.023-13.523Zm5.631,7.593c2.285,0,3.992-1.269,3.946-3.67a3.614,3.614,0,0,0-3.969-3.577H21.365c-.023,1.477-.023,6.462-.023,7.246h3.831Z" transform="translate(0.821 0.457)" fill="#fff"/>
  <path id="Pfad_34321" data-name="Pfad 34321" d="M45.294,11.832a1,1,0,0,1,1.085-.808h.762c.761,0,.969.346,1.177.947.208.692,4.962,13.384,5.169,14.078.116.415-.046.669-.531.669h-.462c-.692,0-.715-.415-.808-.669-.253-.555-.831-2.17-1.292-3.3H43.079c-.531,1.408-1.131,2.862-1.246,3.254-.162.554-.439.716-.785.716h-.692c-.37,0-.531-.253-.347-.739.3-.991,5.031-13.339,5.285-14.146ZM42.664,8.394c-.046-1.062.462-1.178,1.107-1.178s1.154.116,1.2,1.178c.023,1.038-.485,1.153-1.107,1.153C43.172,9.547,42.686,9.432,42.664,8.394Zm7.269,12.9c-1.269-3.438-2.769-7.616-3.138-8.723h-.139c-.346,1.062-1.8,5.261-3.138,8.723h6.415Zm-1.5-12.9c-.046-1.062.462-1.178,1.131-1.178.646,0,1.154.116,1.177,1.178.023,1.038-.485,1.153-1.107,1.153C48.941,9.547,48.456,9.432,48.433,8.394Z" transform="translate(1.679 0.303)" fill="#fff"/>
  <path id="Pfad_34322" data-name="Pfad 34322" d="M62.731,11.748c.023-.531.138-.877.808-.877h.831l9.116,11.562h.185c0-1.109-.092-10.178-.092-10.893,0-.254,0-.67.6-.67h.669c.646,0,.669.6.669,1.085,0,1.269-.046,12.6,0,13.384.023.508.254,1.224-.6,1.224h-.669c-.577,0-.6-.6-.669-.992-.116-.716-7.616-9.831-8.816-11.47h-.231c0,1.546.116,10.939.138,11.239,0,.508.231,1.224-.623,1.224H63.4c-.646,0-.669-.623-.646-1.107.023-1.2-.023-13.34-.023-13.708Z" transform="translate(2.637 0.457)" fill="#fff"/>
  <path id="Pfad_34323" data-name="Pfad 34323" d="M86.233,12.047c0-.53-.184-1.177.6-1.177H87.5c.646,0,.646.531.646,1.016,0,.161-.023,3.023-.069,6.069h3.184c.923-1.131,4.569-5.792,5.169-6.6a.925.925,0,0,1,.785-.485h.992a.393.393,0,0,1,.369.623c-.877,1.062-4.408,5.378-5.746,7.246,1.107,1.593,3.969,5.331,4.431,5.908.415.508.669.531,1.523.531.277,1.131-.277,1.615-1.177,1.615a2.162,2.162,0,0,1-1.939-1.154c-.946-1.292-3.692-5.1-4.523-6.185H88.079c.023,2.815.023,5.585.046,5.931.023.53.069,1.177-.6,1.177h-.669c-.646,0-.646-.554-.646-1.038.046-1.224.023-13.108.023-13.478Z" transform="translate(3.625 0.457)" fill="#fff"/>
  <path id="Pfad_34324" data-name="Pfad 34324" d="M108.315,12.116c.023-.53-.231-1.246.623-1.246h.646c.646,0,.669.6.646,1.085-.093,2.654,0,11.031,0,13.384.023.508.254,1.224-.6,1.224h-.623c-.646,0-.669-.623-.646-1.107.023-1.2-.046-10.732-.046-13.34Z" transform="translate(4.553 0.457)" fill="#fff"/>
  <path id="Pfad_34325" data-name="Pfad 34325" d="M121,24.473a1.136,1.136,0,0,1,.646-.785,5.791,5.791,0,0,0,4.131,1.5c2.469,0,3.969-1.154,3.969-2.862,0-1.223-1.085-2.169-2.838-2.608l-2.515-.669c-1.985-.53-3.877-1.523-3.877-3.946,0-2.469,2.008-4.454,5.516-4.454a8.218,8.218,0,0,1,4.085.9c.507.323.9.784.577,1.384a1.439,1.439,0,0,1-.577.6,6.835,6.835,0,0,0-4.085-1.269c-2.469,0-3.6,1.224-3.6,2.816,0,1.431,1.477,1.985,2.77,2.331l2.515.692c2.7.762,3.946,2.1,3.946,4.2,0,2.769-2.377,4.5-5.885,4.5a8.109,8.109,0,0,1-4.177-.992,1.172,1.172,0,0,1-.6-1.339Z" transform="translate(5.067 0.448)" fill="#fff"/>
  <path id="Pfad_34326" data-name="Pfad 34326" d="M147.929,10.649a7.631,7.631,0,0,1,4.2,1.062c.415.277.738.739.116,1.455a1.1,1.1,0,0,1-.392.346,6.16,6.16,0,0,0-3.946-1.247c-3.669,0-5.492,2.793-5.492,6.439,0,3.715,2.077,6.485,5.492,6.485a5.593,5.593,0,0,0,3.116-.854c.254-.162.531-.277.761.115l.37.577a.432.432,0,0,1-.116.692,7.05,7.05,0,0,1-4.131,1.085c-4.985,0-7.385-3.416-7.408-8.077-.023-4.524,2.423-8.078,7.431-8.078Z" transform="translate(5.907 0.448)" fill="#fff"/>
  <path id="Pfad_34327" data-name="Pfad 34327" d="M162.538,12.116c0-.53-.254-1.246.6-1.246h.669c.623,0,.646.6.623,1.085-.023.3-.023,3.138-.023,6.092h9.323V12.116c0-.53-.253-1.246.6-1.246H175c.623,0,.646.6.623,1.085,0,.554-.023,12.6.046,13.384,0,.508.231,1.224-.623,1.224h-.669c-.646,0-.669-.623-.646-1.107.023-.531.023-3.185.023-5.862h-9.346c.023,2.792.046,5.354.069,5.746.023.508.231,1.224-.623,1.224h-.646c-.646,0-.693-.623-.646-1.107.023-1.2-.046-12.97-.023-13.34Z" transform="translate(6.832 0.457)" fill="#fff"/>
  <path id="Pfad_34328" data-name="Pfad 34328" d="M186.369,12.116c0-.53-.138-1.246.716-1.246h8.746c.485,0,.577.277.577.623v.485c0,.415-.138.577-.577.577h-7.569V18c2.054,0,6-.023,6.6-.023.253-.023.461.115.461.508v.623c0,.346-.115.439-.438.439-.693,0-4.478-.023-6.623,0,0,1.916,0,3.785.022,5.331,1.985,0,6.67,0,7.523-.046.393-.023.577.208.577.623v.623c0,.392-.092.485-.577.485h-8.677c-.623,0-.716-.623-.693-1.107.046-1.2-.069-12.97-.069-13.34Z" transform="translate(7.835 0.457)" fill="#fff"/>
  <path id="Pfad_34329" data-name="Pfad 34329" d="M223.077,12.578c-.67,0-4.362-.023-4.569-.023-.393.023-.531-.162-.531-.6V11.4c0-.416.093-.531.6-.531,0,0,10.246.046,11.031,0,.392-.023.554.208.53.646v.577c0,.392-.069.485-.554.485h-4.662c-.092,3.185.023,12.439.023,12.761-.023.508.231,1.224-.623,1.224h-.67c-.645,0-.645-.6-.645-1.085.022-.461.092-10.27.069-12.9Z" transform="translate(9.165 0.457)" fill="#fff"/>
  <path id="Pfad_34330" data-name="Pfad 34330" d="M244.685,10.649c4.431,0,6.854,3.509,6.877,8.078.046,4.615-2.469,8.077-6.946,8.077-4.824,0-6.97-3.438-6.993-8.077-.023-4.547,2.308-8.078,7.062-8.078Zm-.047,14.54c3.577,0,5.008-3.116,5.008-6.485,0-3.462-1.408-6.439-5.008-6.439-3.715,0-5.077,2.977-5.077,6.439C239.539,22.142,240.878,25.188,244.639,25.188Z" transform="translate(9.991 0.448)" fill="#fff"/>
  <path id="Pfad_34331" data-name="Pfad 34331" d="M260.789,24.473a1.137,1.137,0,0,1,.646-.785,5.791,5.791,0,0,0,4.131,1.5c2.469,0,3.97-1.154,3.97-2.862,0-1.223-1.085-2.169-2.839-2.608l-2.515-.669c-1.985-.53-3.877-1.523-3.877-3.946,0-2.469,2.007-4.454,5.516-4.454a8.215,8.215,0,0,1,4.084.9c.508.323.9.784.577,1.384a1.438,1.438,0,0,1-.577.6,6.834,6.834,0,0,0-4.084-1.269c-2.469,0-3.6,1.224-3.6,2.816,0,1.431,1.477,1.985,2.769,2.331l2.516.692c2.7.762,3.945,2.1,3.945,4.2,0,2.769-2.377,4.5-5.885,4.5a8.105,8.105,0,0,1-4.176-.992,1.171,1.171,0,0,1-.6-1.339Z" transform="translate(10.944 0.448)" fill="#fff"/>
  <path id="Pfad_34332" data-name="Pfad 34332" d="M281.08,12.047c0-.53-.184-1.177.6-1.177h.669c.646,0,.646.531.646,1.016,0,.161-.023,3.023-.069,6.069h3.185c.923-1.131,4.569-5.792,5.169-6.6a.925.925,0,0,1,.785-.485h.992a.393.393,0,0,1,.37.623c-.877,1.062-4.409,5.378-5.747,7.246,1.109,1.593,3.97,5.331,4.431,5.908.415.508.67.531,1.524.531.277,1.131-.277,1.615-1.178,1.615a2.161,2.161,0,0,1-1.938-1.154c-.947-1.292-3.693-5.1-4.524-6.185h-3.069c.023,2.815.023,5.585.046,5.931.023.53.069,1.177-.6,1.177h-.67c-.645,0-.645-.554-.645-1.038.046-1.224.022-13.108.022-13.478Z" transform="translate(11.817 0.457)" fill="#fff"/>
  <path id="Pfad_34333" data-name="Pfad 34333" d="M306.857,11.679a1,1,0,0,1,1.085-.808h.761c.761,0,.969.346,1.177.947.208.692,4.962,13.384,5.17,14.078.115.415-.047.669-.531.669h-.461c-.692,0-.716-.415-.808-.669-.253-.555-.831-2.17-1.292-3.3h-7.316c-.531,1.408-1.131,2.862-1.247,3.254-.161.554-.438.716-.785.716h-.692c-.368,0-.53-.253-.346-.739.3-.991,5.031-13.339,5.285-14.146ZM311.5,21.14c-1.269-3.438-2.77-7.616-3.138-8.723h-.138c-.346,1.062-1.8,5.261-3.139,8.723H311.5Z" transform="translate(12.676 0.457)" fill="#fff"/>
  <path id="Pfad_34334" data-name="Pfad 34334" d="M324.294,11.748c.022-.531.138-.877.807-.877h.831l9.116,11.562h.184c0-1.109-.093-10.178-.093-10.893,0-.254,0-.67.6-.67h.669c.646,0,.67.6.67,1.085,0,1.269-.047,12.6,0,13.384.022.508.253,1.224-.6,1.224h-.669c-.577,0-.6-.6-.67-.992-.115-.716-7.615-9.831-8.815-11.47h-.231c0,1.546.115,10.939.138,11.239,0,.508.231,1.224-.623,1.224h-.646c-.646,0-.669-.623-.646-1.107.023-1.2-.022-13.34-.022-13.708Z" transform="translate(13.635 0.457)" fill="#fff"/>
  <path id="Pfad_34335" data-name="Pfad 34335" d="M351.73,11.679a1,1,0,0,1,1.085-.808h.761c.761,0,.969.346,1.177.947.208.692,4.962,13.384,5.17,14.078.115.415-.047.669-.531.669h-.461c-.692,0-.716-.415-.808-.669-.253-.555-.831-2.17-1.292-3.3h-7.316c-.531,1.408-1.131,2.862-1.247,3.254-.161.554-.438.716-.785.716h-.692c-.368,0-.53-.253-.346-.739.3-.991,5.032-13.339,5.285-14.146Zm4.639,9.461c-1.269-3.438-2.77-7.616-3.138-8.723h-.138c-.346,1.062-1.8,5.261-3.139,8.723h6.416Z" transform="translate(14.563 0.457)" fill="#fff"/>
  <path id="Pfad_34336" data-name="Pfad 34336" d="M413.753,54.858a1.575,1.575,0,0,0-2.228-.04,18.333,18.333,0,0,0-2.9,3.662,24.59,24.59,0,0,0-6.754-8.381,10.4,10.4,0,0,0,3.753-2.359c2.051-1.95,5.512-6.569,5.653-15.591l.031-1.979-1.657.353c.932-4.6.247-10.2-1.862-13.339l-.771-1.148-1.239.617c-.222.111-.446.236-.671.368-.239-5.893-5.406-12.355-11.461-15.945L391.828,0l-.518,2.044A30.592,30.592,0,0,1,388.218,9.7a36.778,36.778,0,0,0-4.211-4.451L382.849,4.17l-1.072,1.158a23.575,23.575,0,0,0-6.188,12.565c-.154-.121-.3-.229-.43-.326l-1.534-1.128-.821,1.719c-2.826,5.917-2.19,10.2-1.08,13.231-.262-.091-.517-.181-.756-.269l-1.861-.691-.251,1.971c-1.168,9.193,2.964,13.151,5.531,14.692a10.743,10.743,0,0,0,8.479,1.184,9.727,9.727,0,0,0,1.046.815c.479,3.372-.583,6.031-2.758,6.821-2.134.775-5.423-.395-7.966-4.753a1.549,1.549,0,0,0-1.383-.782,1.576,1.576,0,0,0-1.361.819c-1.069,1.952-2.464,4.709-3.2,6.178a1.576,1.576,0,1,0,2.819,1.412c.465-.927,1.194-2.373,1.933-3.794,3.447,4.3,7.532,4.865,10.234,3.883,3.2-1.163,5.023-4.386,4.945-8.483a7.726,7.726,0,0,0,5.326-1.18c.134-.083.262-.171.388-.259,3.816,1.11,10.717,4.374,14.14,13.795a1.576,1.576,0,0,0,1.454,1.038h.028a1.576,1.576,0,0,0,1.462-.987,16.418,16.418,0,0,1,3.739-5.712,1.575,1.575,0,0,0,.04-2.229Zm-20.41-19.133a27.667,27.667,0,0,0-3.193-3.914,19.127,19.127,0,0,1,6.493-8.362c1.595,2.812,3.344,7.3,3.027,10.252a15.173,15.173,0,0,0-3.524,3.079c-.235-2.946-.209-5.9-.19-8.873-.937,2.6-1.864,5.18-2.613,7.818Zm14.685-1.7c-.4,4.9-2.028,9-4.581,11.434a5.939,5.939,0,0,1-4.014,1.894,4.877,4.877,0,0,1-.545-.052,21.537,21.537,0,0,0,6.2-9.788c-2.194,3.124-5.124,6.22-8.843,7.412a5.249,5.249,0,0,1,.52-3.306c2.75-5.753,7.843-6.988,11.267-7.594Zm-2.17-13.747a17.859,17.859,0,0,1,.383,10.883,23.882,23.882,0,0,0-3.111.871c.692-2.329,1.371-4.647,1.878-7.034-.86,1.343-1.779,2.631-2.723,3.9a27.685,27.685,0,0,0-1.372-3.89,27.5,27.5,0,0,1,4.945-4.733Zm-12.1-15.36c5.953,4.253,9.441,10.79,7.744,14.877-.764.712-1.48,1.45-2.109,2.147-.4-.711-.747-1.269-.988-1.616l-.4-.571a20.389,20.389,0,0,0-2.254-9.921A19,19,0,0,1,393.993,20.8a46.78,46.78,0,0,0-3.918-8.1,33.552,33.552,0,0,0,3.686-7.787Zm-2.177,18.867a22.322,22.322,0,0,0-3.773,5.464c-1.1-2.833-.9-6.482-.366-9.353a22.306,22.306,0,0,0-2.652,7.55c-.286-.176-.568-.344-.843-.5a16.949,16.949,0,0,0-1.2-1.842c-.012-1.779,1.4-5.335,5.189-9.818a35.15,35.15,0,0,1,3.643,8.494Zm-8.536-15.1a23.887,23.887,0,0,1,3.232,3.719,28.712,28.712,0,0,0-6.038,9.749c-.556-.584-1.121-1.144-1.669-1.666A19.128,19.128,0,0,1,383.047,8.682ZM376.011,44.39c-2.891-1.736-4.347-5.12-4.187-9.638l.66.219a46.318,46.318,0,0,1,6.049,2.314,16.919,16.919,0,0,0,.532,4.4,10.924,10.924,0,0,1-4.4-3.27,13.817,13.817,0,0,0,4.848,7.087A8.027,8.027,0,0,1,376.011,44.39Zm3.419-12.622a48.243,48.243,0,0,1-3.385-5.383,50.1,50.1,0,0,0,1.026,6.841c-.434-.164-.869-.324-1.3-.476l-.03-.062c-1.226-2.516-2.862-5.87-.873-11.315a32.592,32.592,0,0,1,6.114,6.732,20.784,20.784,0,0,0-1.55,3.663Zm6.9,12.338a11.772,11.772,0,0,0,1.972,3.207,4.392,4.392,0,0,1-1.934-.437,8.764,8.764,0,0,1-4.119-5.47A15.373,15.373,0,0,1,383.4,30.284c4.424,2.824,9.268,8.55,9.444,12.593A3.7,3.7,0,0,1,392,45.536a11.356,11.356,0,0,1-3.834-2.573,12.707,12.707,0,0,1-2.741-5.087,14,14,0,0,0,.9,6.231Z" transform="translate(15.433 0)" fill="#f60"/>
  <path id="Pfad_34337" data-name="Pfad 34337" d="M105.656,41.092a.914.914,0,0,1,.9-.9h5.676a.914.914,0,0,1,.9.9v15.6c0,7.556-4.736,13.382-13.494,13.382-8.8,0-13.457-5.826-13.457-13.382v-15.6a.914.914,0,0,1,.9-.9H92.8a.914.914,0,0,1,.9.9V56.24c0,4.248,2.03,6.578,5.939,6.578,3.947,0,6.014-2.33,6.014-6.578V41.092Zm12.476,28.417a.914.914,0,0,1-.9-.9V41.092a.914.914,0,0,1,.9-.9h20.712a.914.914,0,0,1,.9.9V46.58a.915.915,0,0,1-.9.9H125.5a.754.754,0,0,0-.752.751v2.707a.754.754,0,0,0,.752.752h10.675a.915.915,0,0,1,.9.9v5a.915.915,0,0,1-.9.9H125.5a.755.755,0,0,0-.752.752V61.5a.754.754,0,0,0,.752.752h13.344a.915.915,0,0,1,.9.9v5.449a.915.915,0,0,1-.9.9H118.132ZM198.34,41.092a.915.915,0,0,1,.9-.9h5.713a.915.915,0,0,1,.9.9V68.607a.915.915,0,0,1-.9.9h-5.713a.915.915,0,0,1-.9-.9V41.092Zm12.93,28.417a.915.915,0,0,1-.9-.9V41.092a.915.915,0,0,1,.9-.9H231.98a.915.915,0,0,1,.9.9V46.58a.916.916,0,0,1-.9.9H218.637a.753.753,0,0,0-.752.751v2.707a.754.754,0,0,0,.752.752h10.675a.914.914,0,0,1,.9.9v5a.914.914,0,0,1-.9.9H218.637a.754.754,0,0,0-.752.752V61.5a.754.754,0,0,0,.752.752H231.98a.915.915,0,0,1,.9.9v5.449a.915.915,0,0,1-.9.9H211.269Zm32.738-.9a.915.915,0,0,1-.9.9h-5.675a.915.915,0,0,1-.9-.9V41.092a.915.915,0,0,1,.9-.9h4.548a1.852,1.852,0,0,1,1.466.714L255.51,55.978a.243.243,0,0,0,.451-.151V41.092a.914.914,0,0,1,.9-.9h5.676a.915.915,0,0,1,.9.9V68.607a.915.915,0,0,1-.9.9H257.99a1.853,1.853,0,0,1-1.466-.714L244.458,53.759a.243.243,0,0,0-.451.151v14.7Zm24.843.9a.915.915,0,0,1-.9-.9V41.092a.915.915,0,0,1,.9-.9h5.675a.914.914,0,0,1,.9.9V61.5a.753.753,0,0,0,.752.752h12.4a.914.914,0,0,1,.9.9v5.449a.914.914,0,0,1-.9.9Zm32.663-28.492a1.358,1.358,0,0,1,1.24-.826h5.638a1.356,1.356,0,0,1,1.24.826L320.8,68.682a.6.6,0,0,1-.564.827h-6.391a1.306,1.306,0,0,1-1.2-.827l-1.052-2.743a1.1,1.1,0,0,0-1.015-.714H300.535a1.1,1.1,0,0,0-1.015.714l-1.052,2.743a1.306,1.306,0,0,1-1.2.827h-6.39a.6.6,0,0,1-.565-.827l11.2-27.665Zm6.5,17.4a.531.531,0,0,0,.489-.713l-2.668-7.179a.274.274,0,0,0-.526,0L302.6,57.707a.531.531,0,0,0,.489.713h4.924Zm33-17.328a.914.914,0,0,1,.9-.9h5.676a.914.914,0,0,1,.9.9v15.6c0,7.556-4.736,13.382-13.494,13.382-8.8,0-13.457-5.826-13.457-13.382v-15.6a.914.914,0,0,1,.9-.9h5.714a.914.914,0,0,1,.9.9V56.24c0,4.248,2.03,6.578,5.94,6.578,3.946,0,6.014-2.33,6.014-6.578V41.092Zm12.476,28.417a.915.915,0,0,1-.9-.9V41.092a.915.915,0,0,1,.9-.9h19.96a.914.914,0,0,1,.9.9V46.58a.915.915,0,0,1-.9.9h-12.63a.753.753,0,0,0-.752.751v3.684a.754.754,0,0,0,.752.752h10.336a.914.914,0,0,1,.9.9v5a.915.915,0,0,1-.9.9H360.822a.753.753,0,0,0-.752.751v8.382a.914.914,0,0,1-.9.9h-5.675ZM180.448,47.483h13.345a.9.9,0,0,0,.9-.9V41.092a.9.9,0,0,0-.9-.9H173.082a.9.9,0,0,0-.9.9v20.7a2.221,2.221,0,0,0,.586,1.5l5.154,5.6a1.9,1.9,0,0,0,1.4.614h14.473a.9.9,0,0,0,.9-.9v-5.45a.905.905,0,0,0-.9-.9H180.449a.754.754,0,0,1-.752-.752V59.247a.754.754,0,0,1,.752-.752h10.676a.9.9,0,0,0,.9-.9v-5a.9.9,0,0,0-.9-.9H180.449a.754.754,0,0,1-.752-.752V48.234a.753.753,0,0,1,.751-.751Zm-95.013,21.2L74.272,41.017a1.358,1.358,0,0,0-1.24-.826H67.393a1.357,1.357,0,0,0-1.24.826l-8.4,20.751a1.051,1.051,0,0,0,.214,1.121l4.6,4.817a.6.6,0,0,0,.991-.2l.6-1.568a1.1,1.1,0,0,1,1.015-.714H75.211a1.1,1.1,0,0,1,1.015.714l1.053,2.743a1.289,1.289,0,0,0,1.2.827h6.389a.6.6,0,0,0,.564-.827ZM72.655,58.42H67.731a.531.531,0,0,1-.489-.713l2.706-7.179a.274.274,0,0,1,.526,0l2.669,7.179a.531.531,0,0,1-.489.713ZM.907,69.6A.92.92,0,0,1,0,68.688V41.017a.919.919,0,0,1,.907-.907H14.667c6.351,0,9.564,3.44,9.564,8.127a6.668,6.668,0,0,1-2.948,5.821.379.379,0,0,0,.038.681,6.819,6.819,0,0,1,4.234,6.54c0,4.876-3.629,8.316-9.6,8.316H.907ZM14.213,46.99h-5.9a.758.758,0,0,0-.756.756v3.176a.758.758,0,0,0,.756.756H13.8c2.041,0,2.8-.945,2.8-2.344a2.158,2.158,0,0,0-2.382-2.344Zm.908,10.585h-6.8a.758.758,0,0,0-.756.756V62a.758.758,0,0,0,.756.756h6.8c2.041,0,2.8-1.1,2.8-2.647,0-1.512-.756-2.532-2.8-2.532Zm45.75,11.932-3.306-3.484a.982.982,0,0,0-1.423-.2,3.492,3.492,0,0,1-2.036.367c-1.086-.15-2.619-1.412-3.584-2.51l-.009,0-1.8-2.369a.661.661,0,0,1,.227-.982c3.516-1.928,5.141-5.557,5.141-9.451,0-5.86-3.478-10.774-11.038-10.774h-13.5a.919.919,0,0,0-.907.907V68.688a.92.92,0,0,0,.907.907h5.709a.92.92,0,0,0,.907-.907V62.451a.758.758,0,0,1,.756-.756h2.344a1.521,1.521,0,0,1,1.21.6l2.24,3.065c2.1,3.614,4.4,6.762,10.244,7.57a9.958,9.958,0,0,0,7.861-2.176.892.892,0,0,0,.058-1.251ZM36.915,54.852a.758.758,0,0,1-.756-.756V47.745a.758.758,0,0,1,.756-.756h5.708c3.024,0,4.159,1.7,4.159,3.969,0,2.041-1.135,3.894-4.159,3.894ZM175.463,69.506l-3.306-3.484a.982.982,0,0,0-1.423-.2,3.492,3.492,0,0,1-2.036.367c-1.086-.15-2.619-1.412-3.584-2.51l-.009,0-1.8-2.369a.661.661,0,0,1,.227-.982c3.516-1.928,5.141-5.557,5.141-9.451,0-5.86-3.478-10.774-11.038-10.774h-13.5a.919.919,0,0,0-.907.907V68.688a.92.92,0,0,0,.907.907h5.709a.92.92,0,0,0,.907-.907V62.451a.758.758,0,0,1,.756-.756h2.344a1.521,1.521,0,0,1,1.21.6l2.24,3.065c2.1,3.614,4.4,6.762,10.244,7.57a9.958,9.958,0,0,0,7.861-2.176.892.892,0,0,0,.058-1.251ZM151.507,54.852a.758.758,0,0,1-.756-.756V47.745a.758.758,0,0,1,.756-.756h5.708c3.024,0,4.159,1.7,4.159,3.969,0,2.041-1.135,3.894-4.159,3.894Z" transform="translate(0 1.686)" fill="#fff"/>
  <rect id="Rechteck_13785" data-name="Rechteck 13785" width="94.334" height="41.258" rx="8" transform="translate(348.504 69.531) rotate(-4.724)" fill="#7464a9"/>
  <path id="Pfad_34338" data-name="Pfad 34338" d="M347.959,93.111a.9.9,0,0,1,.763-.967l4.3-.356c.723-.061.906.092,1.343.733.509.784,1.872,1.455,4.1,1.272,2.391-.2,3.094-1.069,3.033-1.8-.092-1.058-1.384-1.577-4.457-2.361-4.06-.987-9.413-2.452-9.83-7.581-.4-4.762,3.409-8.049,9.077-8.517,5.8-.478,10.095,2.218,10.777,6.645a.882.882,0,0,1-.753.967l-4.427.366a1.05,1.05,0,0,1-1.16-.773c-.468-1.018-1.761-1.862-3.857-1.689-2.168.173-2.961,1.089-2.89,1.923.081.987,1.272,1.4,4.325,2.178,3.531.926,9.555,2.473,10.013,7.917.4,4.854-3.592,7.744-9.26,8.222-5.638.458-10.268-1.659-11.1-6.177Z" transform="translate(14.597 3.089)" fill="#fff"/>
  <path id="Pfad_34339" data-name="Pfad 34339" d="M385.039,72.729a.774.774,0,0,1,.7-.834l4.813-.407a.776.776,0,0,1,.814.712l1.1,13.219c.529,6.391-3.073,11.672-10.5,12.283-7.449.621-11.8-4-12.334-10.39l-1.089-13.219a.774.774,0,0,1,.7-.834l4.834-.407a.78.78,0,0,1,.824.712L375.961,86.4c.305,3.592,2.188,5.434,5.5,5.159,3.348-.275,4.935-2.4,4.64-5.994l-1.058-12.832ZM372.42,68.261a3.084,3.084,0,1,1,3.348,2.859,3.093,3.093,0,0,1-3.348-2.859Zm8.019-.672a3.084,3.084,0,1,1,3.348,2.86,3.1,3.1,0,0,1-3.348-2.86Z" transform="translate(15.495 2.702)" fill="#fff"/>
  <path id="Pfad_34340" data-name="Pfad 34340" d="M396.594,95.694a.789.789,0,0,1-.834-.7l-1.923-23.314a.774.774,0,0,1,.7-.834l10.766-.9c7.764-.641,12.212,4.7,12.771,11.458.56,6.788-2.951,12.751-10.726,13.392l-10.756.9Zm8.741-19.518-4.05.336a.636.636,0,0,0-.58.682l.926,11.245a.646.646,0,0,0,.692.59l4.04-.336c3.8-.315,5.6-3.022,5.281-6.757s-2.524-6.075-6.309-5.76Z" transform="translate(16.558 2.939)" fill="#fff"/>
</svg>
