<?xml version="1.0" encoding="UTF-8"?><svg id="Ebene_2" xmlns="http://www.w3.org/2000/svg" viewBox="0 0 144.5667 145.24"><g id="Components"><g id="_x36_aa3b742-711a-4b75-8ebb-37a723cba5bc_x40_13"><path d="M14.8909,52.5518c1.211-1.951,4.945-10.732.134-10.194-3.263.37-1.816,6.426-1.413,8.478.202.942.337,2.759,1.279,1.716M30.7029,28.0598c1.547-2.859-4.307-.202-2.591,1.111.774.571,2.086-.572,2.591-1.111M47.4569,15.8478c-4.879.505-6.191,4.172-2.288,2.961l1.615-.606c1.514-.706,4.609-2.22.673-2.355M129.2069,90.9708c-1.48,7.435-1.077,5.282-3.97,11.708-1.917,4.306-3.532,5.113-5.753,9.251-2.557,4.71-4.541,5.316-9.285,7.771-4.441,2.288-5.383,3.903-8.411,7.536-1.513,1.75-3.868.808-6.526,1.144-5.417.673-8.175,2.624-12.818,4.441-2.153.841-3.936-.337-6.425-.673-4.946-.673-8.411-.303-13.188-.235-1.951.033-3.869-1.111-5.484-2.053-.841-.37-2.456-.975-4.306-1.749-2.49-.875-4.878-1.918-7.233-3.129-.74-.37-1.48-.774-2.187-1.177-4.609-2.624-8.848-5.854-12.616-9.588-10.126-10.227-16.282-23.449-17.056-37.848-.067-1.11-.639-7.367.067-7.872.37-.269,1.749,2.254,3.768,4.138,4.205,3.903-1.918,10.866,6.123,26.544,1.716,3.364,4.138,6.56,6.829,9.52,2.422,2.692,2.523,2.591,5.148,4.778,4.003,3.297,7.165.605,7.905,2.523.808,1.985,1.783,4.104,2.658,5.181.505.639,2.86,1.749,3.364,1.951,8.041,3.465,13.76,4.912,22.843,4.979,5.148-.101,13.323-.908,23.045-4.912,2.321-1.11,4.609-2.321,6.796-3.7,3.902-2.49,5.046-3.566,6.56-5.148,1.346-1.413.437-4.979,1.312-5.988.875-1.009,3.432.841,6.594-3.028.437-.504,4.138-5.483,4.474-6.089.505-.942.976-1.884,1.447-2.86.202-.504.437-1.009.639-1.547,1.884-1.245,3.533-2.792,4.912-4.575l.774.706ZM125.8089,60.9288c-.774.471-1.749-.404-2.288-1.043-4.541-5.45,3.6-1.245-4.743-12.414-1.211-1.649.202-4.878-1.144-6.729-1.144-1.547-3.23-4.709-4.374-5.988-1.278-1.379-2.624-2.691-4.037-3.902-6.425-5.585-14.197-9.958-22.439-12.078-.067-.034-9.924-1.581-10.126-1.581-3.701-.135-7.435-.034-11.102.336-2.187.269-1.649,1.952-3.263,2.86-1.144.639-3.398-.303-4.542-.774-1.716-.706-1.985,0-3.701.538-4.945,1.582-7.536,3.163-11.875,5.955-1.918,1.278-2.49,1.11-3.23,3.162-.808,2.288,1.11,8.68-1.783,8.041-3.566-.807-9.42,2.355-11.237,5.114-1.749,2.657-2.321,3.868-3.7,6.728-.202.437-.404.875-.572,1.312-1.985,4.676-2.456,8.579-1.682,11.775-1.11.302-2.288.437-3.432.437-.37-1.85-.437-3.768-.168-5.652-.774,1.851-2.523,3.533-8.511,4.374-7.503,1.043-.808-4.105.74-7.334,2.59-5.518,1.278-9.992,2.523-12.818,2.389-4.373,7.435-2.96,10.866-13.221,2.322-6.964,2.053-4.979,8.377-7.772,7.469-3.263,8.377-8.343,12.851-10.059,3.903-1.177,6.964-.807,11.54-2.725,1.884-.908,6.19-4.07,7.603-4.003,2.759.101,4.239,2.153,9.958,1.884,1.548-.067,10.665-1.682,10.362.673-.337,2.657-6.224,4.575-8.646,4.676-4.576.135-9.723-3.6-10.833-3.23-.673.236-2.254,5.921.639,5.989,3.6.033,6.56-.572,10.564-.337,4.071.269,12.75,1.649,17.09,3.667,7.267,2.523,13.995,6.426,19.815,11.472,6.392,5.517,14.803,17.629,16.115,25.568.235,1.75.134,6.056-1.615,7.099M122.4449,23.1148c.033,2.389-9.117,1.749-11.001-2.591-.606-1.446,3.028.034,3.364.135,1.312.37,6.863,1.682,7.637,2.456M94.4879,13.3248c-.504-.269-4.542-2.725-3.129-3.398,1.716-.37,8.074-.202,9.689.438,4.307,1.749-1.413,6.055-6.56,2.96M5.1349,75.2938c.269-1.716.101-9.824,2.355-4.609,1.547,3.499,2.254,8.309-.202,11.573-5.08,3.835-2.49-4.677-2.153-6.964M11.1899,91.3068c1.48.808,2.153,5.249,2.422,6.931.101,4.508-2.422,7.266-2.556,1.917-.068-1.715-.404-7.67.134-8.848M22.6289,116.0678c.1-4.239,2.254,3.196.874,3.162-.673,0-.841-2.691-.874-3.162M40.0549,132.9228c-.168-.101-.303-.404-.37-.606-.504-1.312.606.269.37.606M141.7889,56.3868c-5.753-8.781-2.321-12.448-4.441-16.384-2.287-4.239-6.526-3.532-10.025-12.75-.505-1.413-1.11-2.759-1.817-4.071-.74-1.211-1.816-2.153-3.128-2.691-3.163-1.48-6.157-1.649-9.319-3.768l-.236-.168c-.74-.539-1.413-1.144-2.052-1.783-2.826-2.894-1.581-6.661-6.493-7.469-4.979-.841-5.988,1.144-11.573-1.514-2.792-1.413-5.416-4.171-7.906-5.046-3.297-1.043-8.982,4.205-17.662,1.581-3.566-1.076-4.508-3.499-7.166-1.648-3.868,3.162-6.56,4.979-11.673,5.853-2.355.404-7.2.135-8.411.505-1.312.606-1.749,1.749-2.456,2.961-5.921,10.429-13.961,8.41-16.417,10.429-2.591,2.153.774,7.939-8.781,15.071-3.6,2.456-5.315,2.153-5.113,6.594.437,10.093-.169,8.478-5.282,16.317-3.566,5.618,2.691,8.713,1.379,16.148-.639,3.566-2.523,5.921-3.162,8.41-.808,3.23,7.569,5.618,7.199,16.653-.504,9.151-2.59,4.205,5.215,9.655,5.315,3.735,5.248,7.536,7.098,12.784,2.254,6.392,10.597.808,17.124,12.28,1.514,2.994.774,4.373,3.734,3.801,13.524-2.557,18.335,7.334,20.623,7.099.572-.101,1.077-.303,1.581-.572,3.701-1.918,5.484-2.792,9.925-2.389,5.82.539,8.847,3.869,13.759.707,6.897-4.441,7.536-3.936,15.375-4.878,7.434-1.312,5.954-6.123,11.842-9.723,3.633-2.254,6.055-1.884,9.117-3.162,3.566-1.985,1.648-7.2,6.93-12.414,6.358-6.258,7.536-5.282,8.276-14.87.74-9.588,4.844-8.074,6.56-13.121.606-4.608-4.239-9.083-1.817-16.45,2.153-6.561,3.365-5.585-.807-11.977" style="fill:#405b36;"/></g></g></svg>
